<svg width="34" height="34" viewBox="0 0 34 34" fill="none" xmlns="http://www.w3.org/2000/svg">
<path d="M27.4128 7.1598C25.4454 6.23926 23.364 5.58518 21.2237 5.21484C20.9571 5.69684 20.6456 6.34512 20.4308 6.86086C18.1231 6.51387 15.8367 6.51387 13.5714 6.86086C13.3567 6.34523 13.0382 5.69684 12.7692 5.21484C10.6267 5.58535 8.54358 6.2411 6.57523 7.16461C2.65835 13.0836 1.59652 18.8555 2.12737 24.5456C4.7253 26.4857 7.24296 27.6642 9.71819 28.4354C10.3334 27.5895 10.8771 26.6938 11.3439 25.7578C10.4552 25.4195 9.59846 25.0025 8.78386 24.5119C8.99823 24.353 9.20755 24.1874 9.41152 24.0154C14.3477 26.3242 19.7111 26.3242 24.5885 24.0154C24.7933 24.1863 25.0026 24.3518 25.216 24.5119C24.4001 25.0038 23.5417 25.4216 22.6512 25.7603C23.1207 26.7001 23.6635 27.5966 24.277 28.4378C26.7546 27.6667 29.2746 26.4881 31.8725 24.5456C32.4955 17.9494 30.8084 12.2305 27.4128 7.1598ZM12.0165 21.0463C10.5346 21.0463 9.31941 19.6629 9.31941 17.9783C9.31941 16.2937 10.5087 14.908 12.0165 14.908C13.5243 14.908 14.7394 16.2913 14.7135 17.9783C14.7159 19.6629 13.5243 21.0463 12.0165 21.0463ZM21.9834 21.0463C20.5016 21.0463 19.2864 19.6629 19.2864 17.9783C19.2864 16.2937 20.4757 14.908 21.9834 14.908C23.4912 14.908 24.7064 16.2913 24.6805 17.9783C24.6805 19.6629 23.4912 21.0463 21.9834 21.0463Z" fill="#5865F2"/>
</svg>
