<svg width="14" height="15" viewBox="0 0 14 15" fill="none" xmlns="http://www.w3.org/2000/svg">
<g id="icon-park-solid:check-one">
<g id="Mask group">
<mask id="mask0_3202_6585" style="mask-type:luminance" maskUnits="userSpaceOnUse" x="0" y="1" width="14" height="13">
<g id="Group">
<g id="Group_2">
<path id="Vector" d="M7.00003 13.3334C7.76621 13.3344 8.52505 13.184 9.23291 12.8908C9.94077 12.5975 10.5837 12.1673 11.1248 11.6248C11.6673 11.0838 12.0975 10.4408 12.3907 9.73297C12.6839 9.02511 12.8344 8.26628 12.8334 7.50009C12.8343 6.7339 12.6839 5.97507 12.3907 5.26721C12.0975 4.55935 11.6673 3.91641 11.1248 3.37534C10.5837 2.83284 9.94077 2.40263 9.23291 2.10941C8.52505 1.81619 7.76621 1.66576 7.00003 1.66675C6.23384 1.66578 5.47501 1.81622 4.76715 2.10943C4.05929 2.40265 3.41635 2.83286 2.87528 3.37534C2.3328 3.91641 1.90259 4.55935 1.60937 5.26721C1.31616 5.97507 1.16572 6.7339 1.16669 7.50009C1.1657 8.26628 1.31613 9.02511 1.60935 9.73297C1.90257 10.4408 2.33278 11.0838 2.87528 11.6248C3.41635 12.1673 4.05929 12.5975 4.76715 12.8907C5.47501 13.184 6.23384 13.3344 7.00003 13.3334Z" fill="white" stroke="white" stroke-width="1.33333" stroke-linejoin="round"/>
<path id="Vector_2" d="M4.66669 7.50024L6.41669 9.25024L9.91669 5.75024" stroke="black" stroke-width="1.33333" stroke-linecap="round" stroke-linejoin="round"/>
</g>
</g>
</mask>
<g mask="url(#mask0_3202_6585)">
<path id="Vector_3" d="M6.10352e-05 0.500244H14.0001V14.5002H6.10352e-05V0.500244Z" fill="#26FFA4"/>
</g>
</g>
</g>
</svg>
