<svg width="25" height="24" viewBox="0 0 25 24" fill="none" xmlns="http://www.w3.org/2000/svg">
<path d="M9.5 15L15.5 9M11.5 6L11.963 5.464C12.9008 4.52633 14.1727 3.9996 15.4989 3.99969C16.825 3.99979 18.0968 4.52669 19.0345 5.4645C19.9722 6.40231 20.4989 7.67419 20.4988 9.00035C20.4987 10.3265 19.9718 11.5983 19.034 12.536L18.5 13M13.5 18L13.103 18.534C12.1543 19.4722 10.8738 19.9984 9.53951 19.9984C8.20522 19.9984 6.92476 19.4722 5.976 18.534C5.50836 18.0716 5.1371 17.521 4.88372 16.9141C4.63033 16.3073 4.49986 15.6562 4.49986 14.9985C4.49986 14.3409 4.63033 13.6897 4.88372 13.0829C5.1371 12.476 5.50836 11.9254 5.976 11.463L6.5 11" stroke="white" stroke-width="2" stroke-linecap="round" stroke-linejoin="round"/>
</svg>
