<svg xmlns="http://www.w3.org/2000/svg" width="25" height="24" viewBox="0 0 25 24" fill="none">
  <g clip-path="url(#clip0_2298_4806)">
    <path d="M19.996 13.983L21.962 17.389C22.0429 17.5292 22.0886 17.687 22.0951 17.8488C22.1017 18.0105 22.0689 18.1715 21.9995 18.3178C21.9302 18.4641 21.8264 18.5914 21.6971 18.6888C21.5678 18.7862 21.4168 18.8508 21.257 18.877L21.144 18.888L21.032 18.887L18.099 18.697L16.796 21.333C16.7253 21.4757 16.6215 21.5995 16.4933 21.6941C16.3651 21.7886 16.2161 21.8512 16.0589 21.8767C15.9016 21.9021 15.7406 21.8896 15.5891 21.8403C15.4376 21.7909 15.3001 21.7062 15.188 21.593L15.106 21.499L15.034 21.389L13.066 17.982C14.4514 17.8954 15.7979 17.4893 17.0002 16.7955C18.2024 16.1018 19.2278 15.1391 19.996 13.983ZM11.93 17.982L9.964 21.39C9.88433 21.5281 9.77285 21.6451 9.63881 21.7314C9.50478 21.8177 9.35208 21.8707 9.19342 21.8861C9.03476 21.9014 8.87472 21.8787 8.72663 21.8197C8.57853 21.7607 8.44667 21.6672 8.342 21.547L8.266 21.447L8.202 21.333L6.898 18.698L3.967 18.888C3.80555 18.8984 3.64399 18.8695 3.49615 18.8038C3.34831 18.738 3.21861 18.6375 3.11814 18.5107C3.01768 18.3839 2.94944 18.2346 2.91929 18.0756C2.88914 17.9167 2.89796 17.7528 2.945 17.598L2.985 17.491L3.035 17.391L5.003 13.982C5.77067 15.1381 6.79547 16.1009 7.9972 16.795C9.19892 17.4891 10.545 17.8947 11.93 17.982ZM12.5 2L12.74 2.004C14.5539 2.06623 16.2727 2.83056 17.5339 4.13577C18.7951 5.44098 19.5 7.18502 19.5 9L19.497 9.193L19.49 9.385L19.472 9.63L19.446 9.872L19.422 10.05C19.3562 10.4816 19.2501 10.9062 19.105 11.318L18.989 11.626L18.836 11.974C18.2699 13.18 17.3714 14.1994 16.2461 14.9125C15.1208 15.6257 13.8153 16.0029 12.4831 16C11.1508 15.9971 9.84708 15.614 8.72492 14.896C7.60276 14.1779 6.7088 13.1545 6.148 11.946L6.018 11.649L5.966 11.516L5.886 11.299L5.791 11.005C5.75707 10.8911 5.72606 10.7764 5.698 10.661L5.638 10.39L5.589 10.119L5.569 9.98L5.53 9.657L5.506 9.292L5.5 9C5.49997 7.18502 6.20489 5.44098 7.46607 4.13577C8.72726 2.83056 10.4461 2.06623 12.26 2.004L12.5 2Z" fill="white"/>
  </g>
  <defs>
    <clipPath id="clip0_2298_4806">
      <rect width="24" height="24" fill="white" transform="translate(0.5)"/>
    </clipPath>
  </defs>
</svg>