<svg width="26" height="27" viewBox="0 0 26 27" fill="none" xmlns="http://www.w3.org/2000/svg">
<g id="skill-icons:discord" clip-path="url(#clip0_3202_6577)">
<g id="Group">
<path id="Vector" d="M19.9062 0.5H6.09375C2.72826 0.5 0 3.22826 0 6.59375V20.4062C0 23.7717 2.72826 26.5 6.09375 26.5H19.9062C23.2717 26.5 26 23.7717 26 20.4062V6.59375C26 3.22826 23.2717 0.5 19.9062 0.5Z" fill="#5865F2"/>
<g id="Clip path group">
<mask id="mask0_3202_6577" style="mask-type:luminance" maskUnits="userSpaceOnUse" x="2" y="5" width="22" height="17">
<g id="skillIconsDiscord0">
<path id="Vector_2" d="M2.84375 5.67969H23.1562V21.4148H2.84375V5.67969Z" fill="white"/>
</g>
</mask>
<g mask="url(#mask0_3202_6577)">
<g id="Group_2">
<path id="Vector_3" d="M20.0391 7.08084C18.7222 6.47632 17.3324 6.04525 15.9046 5.79841C15.8916 5.79601 15.8782 5.79776 15.8663 5.80341C15.8544 5.80906 15.8445 5.81833 15.8382 5.8299C15.6596 6.14738 15.4618 6.56175 15.3233 6.88736C13.762 6.65357 12.2088 6.65357 10.6796 6.88736C10.5411 6.55444 10.3361 6.14738 10.1568 5.8299C10.1501 5.81857 10.1402 5.80951 10.1284 5.80389C10.1165 5.79827 10.1032 5.79636 10.0902 5.79841C8.66227 6.04475 7.27244 6.47584 5.95573 7.08084C5.94446 7.08563 5.93495 7.09379 5.92851 7.1042C3.29519 11.0383 2.5739 14.8758 2.92774 18.6657C2.92873 18.675 2.93157 18.684 2.93611 18.6921C2.94065 18.7003 2.94678 18.7075 2.95415 18.7132C4.69148 19.9891 6.37447 20.7637 8.02618 21.2771C8.03903 21.281 8.05274 21.2808 8.06548 21.2766C8.07822 21.2724 8.08939 21.2645 8.09748 21.2538C8.48819 20.7202 8.83644 20.1576 9.13514 19.566C9.13925 19.5579 9.1416 19.549 9.14203 19.54C9.14246 19.5309 9.14096 19.5218 9.13763 19.5134C9.1343 19.5049 9.12922 19.4973 9.12271 19.4909C9.11621 19.4846 9.10843 19.4797 9.0999 19.4765C8.5474 19.2669 8.02141 19.0115 7.51542 18.7213C7.50621 18.7159 7.49847 18.7083 7.49289 18.6992C7.48731 18.69 7.48406 18.6797 7.48343 18.669C7.48279 18.6583 7.4848 18.6477 7.48926 18.6379C7.49373 18.6282 7.50051 18.6197 7.50902 18.6133C7.61576 18.5335 7.72067 18.4512 7.82366 18.3667C7.83268 18.3592 7.8436 18.3544 7.85519 18.3528C7.86679 18.3513 7.87859 18.353 7.88927 18.3577C11.2136 19.8755 14.8125 19.8755 18.0975 18.3577C18.1082 18.3526 18.1202 18.3507 18.132 18.3522C18.1437 18.3536 18.1549 18.3583 18.164 18.3659C18.2671 18.4509 18.3723 18.5334 18.4795 18.6133C18.488 18.6197 18.4949 18.6281 18.4994 18.6378C18.504 18.6475 18.506 18.6581 18.5055 18.6688C18.5049 18.6795 18.5018 18.6898 18.4963 18.699C18.4908 18.7082 18.4831 18.7158 18.4739 18.7213C17.9676 19.0169 17.4373 19.2693 16.8886 19.4757C16.8801 19.479 16.8724 19.484 16.8659 19.4905C16.8595 19.4969 16.8545 19.5047 16.8512 19.5132C16.848 19.5217 16.8465 19.5308 16.8471 19.5399C16.8476 19.549 16.85 19.5579 16.8542 19.566C17.1581 20.1529 17.5046 20.7168 17.8909 21.253C17.8988 21.2639 17.9099 21.2722 17.9227 21.2765C17.9355 21.2809 17.9493 21.2811 17.9622 21.2771C19.622 20.7637 21.305 19.9891 23.0424 18.7132C23.0498 18.7077 23.056 18.7007 23.0606 18.6927C23.0651 18.6846 23.0679 18.6757 23.0688 18.6665C23.4923 14.285 22.3594 10.4789 20.0655 7.10501C20.0599 7.09405 20.0505 7.08547 20.0391 7.08084ZM9.63158 16.3581C8.63068 16.3581 7.80599 15.4392 7.80599 14.3108C7.80599 13.1823 8.61473 12.2635 9.63158 12.2635C10.6563 12.2635 11.473 13.1904 11.457 14.3108C11.457 15.4392 10.6484 16.3581 9.63158 16.3581ZM16.381 16.3581C15.3801 16.3581 14.5555 15.4392 14.5555 14.3108C14.5555 13.1823 15.3642 12.2635 16.381 12.2635C17.4058 12.2635 18.2224 13.1904 18.2065 14.3108C18.2065 15.4392 17.4058 16.3581 16.381 16.3581Z" fill="white"/>
</g>
</g>
</g>
</g>
</g>
<defs>
<clipPath id="clip0_3202_6577">
<rect width="26" height="26" fill="white" transform="translate(0 0.5)"/>
</clipPath>
</defs>
</svg>
