<svg width="26" height="27" viewBox="0 0 26 27" fill="none" xmlns="http://www.w3.org/2000/svg">
<g id="skill-icons:discord" clip-path="url(#clip0_3202_6593)">
<g id="Group">
<path id="Vector" d="M19.9062 0.5H6.09375C2.72826 0.5 0 3.22826 0 6.59375V20.4062C0 23.7717 2.72826 26.5 6.09375 26.5H19.9062C23.2717 26.5 26 23.7717 26 20.4062V6.59375C26 3.22826 23.2717 0.5 19.9062 0.5Z" fill="#249CFC"/>
<path id="Vector_2" d="M20.5549 10.7341C20.5665 10.897 20.5665 11.0596 20.5665 11.2239C20.5665 16.2283 16.6452 22 9.4752 22V21.9971C7.35701 22 5.28272 21.4105 3.5 20.2991C3.80801 20.3351 4.1175 20.3532 4.42773 20.3539C6.18332 20.3552 7.88841 19.7832 9.26902 18.7295C8.45558 18.7146 7.66727 18.4531 7.01432 17.9815C6.36137 17.5099 5.87641 16.8519 5.62726 16.0994C6.21166 16.209 6.81372 16.1864 7.38728 16.0341C5.56862 15.6771 4.2603 14.1247 4.2603 12.3219V12.2738C4.80244 12.5673 5.40921 12.7299 6.02952 12.7479C4.31641 11.6357 3.78871 9.42174 4.82302 7.69096C5.80166 8.86097 7.02266 9.81788 8.40672 10.4995C9.79079 11.1812 11.307 11.5724 12.8568 11.6476C12.7023 11.0013 12.7251 10.327 12.9231 9.69198C13.121 9.05698 13.487 8.48359 13.9846 8.02916C15.5546 6.59518 18.0239 6.66873 19.4996 8.19342C20.3726 8.02595 21.2098 7.71497 21.9751 7.27388C21.6841 8.15084 21.0752 8.89525 20.2616 9.36867C21.0343 9.28015 21.7889 9.07912 22.5 8.77232C21.9769 9.53346 21.3182 10.1978 20.5549 10.7341Z" fill="white"/>
</g>
</g>
<defs>
<clipPath id="clip0_3202_6593">
<rect width="26" height="26" fill="white" transform="translate(0 0.5)"/>
</clipPath>
</defs>
</svg>
