<svg width="54" height="54" viewBox="0 0 54 54" fill="none" xmlns="http://www.w3.org/2000/svg">
<g filter="url(#filter0_b_2236_5511)">
<path d="M23.8 1.84752C24.9658 1.17446 25.5487 0.837932 26.1684 0.706212C26.7167 0.589666 27.2833 0.589666 27.8316 0.706212C28.4513 0.837932 29.0342 1.17446 30.2 1.84752L47.1827 11.6525C48.3485 12.3255 48.9314 12.6621 49.3553 13.1329C49.7304 13.5495 50.0137 14.0402 50.1869 14.5733C50.3827 15.1759 50.3827 15.8489 50.3827 17.195L50.3827 36.805C50.3827 38.1511 50.3827 38.8241 50.1869 39.4267C50.0137 39.9598 49.7304 40.4505 49.3553 40.8671C48.9314 41.3379 48.3485 41.6745 47.1827 42.3475L30.2 52.1525C29.0342 52.8255 28.4513 53.1621 27.8316 53.2938C27.2833 53.4103 26.7167 53.4103 26.1684 53.2938C25.5487 53.1621 24.9658 52.8255 23.8 52.1525L6.81732 42.3475C5.65154 41.6745 5.06866 41.3379 4.64474 40.8671C4.26965 40.4505 3.98631 39.9598 3.81309 39.4267C3.61732 38.8241 3.61732 38.1511 3.61732 36.805L3.61732 17.195C3.61732 15.8489 3.61732 15.1759 3.81309 14.5733C3.98631 14.0402 4.26965 13.5495 4.64474 13.1329C5.06866 12.6621 5.65154 12.3255 6.81732 11.6525L23.8 1.84752Z" fill="url(#paint0_linear_2236_5511)" fill-opacity="0.16"/>
<path d="M24.05 2.28053C25.245 1.59061 25.7485 1.30663 26.2723 1.19529C26.7521 1.09331 27.2479 1.09331 27.7277 1.19529C28.2515 1.30663 28.755 1.59061 29.95 2.28053L46.9327 12.0855C48.1277 12.7754 48.6253 13.0695 48.9837 13.4674C49.3119 13.8319 49.5598 14.2614 49.7114 14.7278C49.8769 15.2372 49.8827 15.8152 49.8827 17.195L49.8827 36.805C49.8827 38.1848 49.8769 38.7628 49.7114 39.2722C49.5598 39.7386 49.3119 40.1681 48.9837 40.5326C48.6253 40.9305 48.1277 41.2246 46.9327 41.9145L29.95 51.7195C28.755 52.4094 28.2515 52.6934 27.7277 52.8047C27.2479 52.9067 26.7521 52.9067 26.2723 52.8047C25.7485 52.6934 25.245 52.4094 24.05 51.7195L7.06732 41.9145C5.87233 41.2246 5.37466 40.9305 5.01631 40.5326C4.68811 40.1681 4.44019 39.7386 4.28862 39.2722C4.12313 38.7628 4.11732 38.1848 4.11732 36.805L4.11732 17.195C4.11732 15.8152 4.12313 15.2372 4.28862 14.7278C4.44019 14.2614 4.68811 13.8319 5.01631 13.4674C5.37466 13.0695 5.87233 12.7754 7.06732 12.0855L24.05 2.28053Z" stroke="url(#paint1_linear_2236_5511)"/>
<path d="M24.05 2.28053C25.245 1.59061 25.7485 1.30663 26.2723 1.19529C26.7521 1.09331 27.2479 1.09331 27.7277 1.19529C28.2515 1.30663 28.755 1.59061 29.95 2.28053L46.9327 12.0855C48.1277 12.7754 48.6253 13.0695 48.9837 13.4674C49.3119 13.8319 49.5598 14.2614 49.7114 14.7278C49.8769 15.2372 49.8827 15.8152 49.8827 17.195L49.8827 36.805C49.8827 38.1848 49.8769 38.7628 49.7114 39.2722C49.5598 39.7386 49.3119 40.1681 48.9837 40.5326C48.6253 40.9305 48.1277 41.2246 46.9327 41.9145L29.95 51.7195C28.755 52.4094 28.2515 52.6934 27.7277 52.8047C27.2479 52.9067 26.7521 52.9067 26.2723 52.8047C25.7485 52.6934 25.245 52.4094 24.05 51.7195L7.06732 41.9145C5.87233 41.2246 5.37466 40.9305 5.01631 40.5326C4.68811 40.1681 4.44019 39.7386 4.28862 39.2722C4.12313 38.7628 4.11732 38.1848 4.11732 36.805L4.11732 17.195C4.11732 15.8152 4.12313 15.2372 4.28862 14.7278C4.44019 14.2614 4.68811 13.8319 5.01631 13.4674C5.37466 13.0695 5.87233 12.7754 7.06732 12.0855L24.05 2.28053Z" stroke="url(#paint2_linear_2236_5511)"/>
</g>
<g filter="url(#filter1_ii_2236_5511)">
<path d="M37.4591 21C36.6891 21.35 35.8591 21.58 34.9991 21.69C35.8791 21.16 36.5591 20.32 36.8791 19.31C36.0491 19.81 35.1291 20.16 34.1591 20.36C33.3691 19.5 32.2591 19 30.9991 19C28.6491 19 26.7291 20.92 26.7291 23.29C26.7291 23.63 26.7691 23.96 26.8391 24.27C23.2791 24.09 20.1091 22.38 17.9991 19.79C17.6291 20.42 17.4191 21.16 17.4191 21.94C17.4191 23.43 18.1691 24.75 19.3291 25.5C18.6191 25.5 17.9591 25.3 17.3791 25V25.03C17.3791 27.11 18.8591 28.85 20.8191 29.24C20.1898 29.4122 19.5292 29.4362 18.8891 29.31C19.1607 30.1625 19.6926 30.9084 20.4101 31.4429C21.1276 31.9775 21.9945 32.2737 22.8891 32.29C21.3727 33.4904 19.4931 34.1393 17.5591 34.13C17.2191 34.13 16.8791 34.11 16.5391 34.07C18.4391 35.29 20.6991 36 23.1191 36C30.9991 36 35.3291 29.46 35.3291 23.79C35.3291 23.6 35.3291 23.42 35.3191 23.23C36.1591 22.63 36.8791 21.87 37.4591 21Z" fill="url(#paint3_linear_2236_5511)"/>
</g>
<defs>
<filter id="filter0_b_2236_5511" x="-20.3826" y="-23.3811" width="94.7654" height="100.762" filterUnits="userSpaceOnUse" color-interpolation-filters="sRGB">
<feFlood flood-opacity="0" result="BackgroundImageFix"/>
<feGaussianBlur in="BackgroundImageFix" stdDeviation="12"/>
<feComposite in2="SourceAlpha" operator="in" result="effect1_backgroundBlur_2236_5511"/>
<feBlend mode="normal" in="SourceGraphic" in2="effect1_backgroundBlur_2236_5511" result="shape"/>
</filter>
<filter id="filter1_ii_2236_5511" x="16.5391" y="19" width="20.9199" height="17" filterUnits="userSpaceOnUse" color-interpolation-filters="sRGB">
<feFlood flood-opacity="0" result="BackgroundImageFix"/>
<feBlend mode="normal" in="SourceGraphic" in2="BackgroundImageFix" result="shape"/>
<feColorMatrix in="SourceAlpha" type="matrix" values="0 0 0 0 0 0 0 0 0 0 0 0 0 0 0 0 0 0 127 0" result="hardAlpha"/>
<feOffset dy="0.2"/>
<feComposite in2="hardAlpha" operator="arithmetic" k2="-1" k3="1"/>
<feColorMatrix type="matrix" values="0 0 0 0 1 0 0 0 0 1 0 0 0 0 1 0 0 0 0.25 0"/>
<feBlend mode="normal" in2="shape" result="effect1_innerShadow_2236_5511"/>
<feColorMatrix in="SourceAlpha" type="matrix" values="0 0 0 0 0 0 0 0 0 0 0 0 0 0 0 0 0 0 127 0" result="hardAlpha"/>
<feOffset dy="-0.2"/>
<feComposite in2="hardAlpha" operator="arithmetic" k2="-1" k3="1"/>
<feColorMatrix type="matrix" values="0 0 0 0 0 0 0 0 0 0 0 0 0 0 0 0 0 0 0.25 0"/>
<feBlend mode="normal" in2="effect1_innerShadow_2236_5511" result="effect2_innerShadow_2236_5511"/>
</filter>
<linearGradient id="paint0_linear_2236_5511" x1="27" y1="0" x2="27" y2="54" gradientUnits="userSpaceOnUse">
<stop stop-color="#F200DC"/>
<stop offset="1" stop-color="#8217F4"/>
</linearGradient>
<linearGradient id="paint1_linear_2236_5511" x1="9.52941" y1="48.8382" x2="49.9664" y2="5.89656" gradientUnits="userSpaceOnUse">
<stop stop-color="#F200DC" stop-opacity="0.67"/>
<stop offset="1" stop-color="#249CFC"/>
</linearGradient>
<linearGradient id="paint2_linear_2236_5511" x1="9.52941" y1="48.8382" x2="49.9664" y2="5.89656" gradientUnits="userSpaceOnUse">
<stop stop-color="white" stop-opacity="0"/>
<stop offset="1" stop-color="white" stop-opacity="0.16"/>
</linearGradient>
<linearGradient id="paint3_linear_2236_5511" x1="16.9554" y1="19.3841" x2="33.4433" y2="39.7896" gradientUnits="userSpaceOnUse">
<stop stop-color="#D8E8FF"/>
<stop offset="0.682292" stop-color="#EDFCFF"/>
<stop offset="1" stop-color="white"/>
</linearGradient>
</defs>
</svg>
