<svg width="34" height="34" viewBox="0 0 34 34" fill="none" xmlns="http://www.w3.org/2000/svg">
<g id="devicon:twitter">
<path id="Vector" d="M28.1335 11.4767C28.1506 11.7155 28.1506 11.9541 28.1506 12.1951C28.1506 19.5349 22.3718 28 11.8056 28V27.9958C8.68402 28 5.62717 27.1354 3 25.5053C3.45391 25.5582 3.91 25.5846 4.36719 25.5857C6.95437 25.5877 9.46713 24.7486 11.5017 23.2033C10.303 23.1814 9.14125 22.7978 8.179 22.1062C7.21675 21.4146 6.50208 20.4494 6.13491 19.3458C6.99612 19.5065 7.88337 19.4733 8.72862 19.25C6.0485 18.7264 4.12044 16.4496 4.12044 13.8054V13.7349C4.91938 14.1653 5.81357 14.4038 6.72772 14.4302C4.20312 12.799 3.42547 9.55189 4.94972 7.01341C6.39191 8.72942 8.19129 10.1329 10.231 11.1327C12.2706 12.1324 14.505 12.7061 16.7889 12.8165C16.5613 11.8686 16.5949 10.8796 16.8866 9.94824C17.1783 9.01691 17.7177 8.17594 18.451 7.50943C20.7647 5.40627 24.4036 5.51414 26.5784 7.75036C27.8649 7.50472 29.0987 7.04862 30.2265 6.40169C29.7976 7.68789 28.9002 8.7797 27.7013 9.47405C28.84 9.34422 29.952 9.04937 31 8.59941C30.2291 9.71574 29.2584 10.6901 28.1335 11.4767Z" fill="#1D9BF0"/>
</g>
</svg>
